<mxfile host="app.diagrams.net" modified="2023-10-11T10:29:41.481Z" agent="Mozilla/5.0 (Windows NT 10.0; Win64; x64) AppleWebKit/537.36 (KHTML, like Gecko) Chrome/117.0.0.0 Safari/537.36" etag="jarfIhHZkdle9cAfOh-6" version="22.0.4" type="device">
  <diagram id="R2lEEEUBdFMjLlhIrx00" name="Page-1">
    <mxGraphModel dx="2284" dy="1850" grid="1" gridSize="10" guides="1" tooltips="1" connect="1" arrows="1" fold="1" page="1" pageScale="1" pageWidth="850" pageHeight="1100" math="0" shadow="0" extFonts="Permanent Marker^https://fonts.googleapis.com/css?family=Permanent+Marker">
      <root>
        <mxCell id="0" />
        <mxCell id="1" parent="0" />
        <mxCell id="kPW2HSagZ7D2L_FUB9F4-1" value="users" style="swimlane;childLayout=stackLayout;horizontal=1;startSize=50;horizontalStack=0;rounded=1;fontSize=14;fontStyle=0;strokeWidth=2;resizeParent=0;resizeLast=1;shadow=0;dashed=0;align=center;arcSize=4;whiteSpace=wrap;html=1;" parent="1" vertex="1">
          <mxGeometry y="-120" width="160" height="270" as="geometry">
            <mxRectangle x="-60" y="30" width="70" height="50" as="alternateBounds" />
          </mxGeometry>
        </mxCell>
        <mxCell id="kPW2HSagZ7D2L_FUB9F4-2" value="id BIGINT (PK)&lt;br&gt;first_name VARCHAR(50)&lt;br&gt;last_name VARCHAR(50)&lt;br&gt;email VARCHAR(100)&lt;br&gt;password VARCHAR(255)&lt;br&gt;address VARCHAR(255)&lt;br&gt;phone VARCHAR(30)&lt;br&gt;title VARCHAR(50)&lt;br&gt;bio VARCHAR(255)&lt;br&gt;enabled TINYINT(1)&lt;br&gt;non_locked TINYINT(1)&lt;br&gt;using_mfa TINYINT(1)&lt;br&gt;created_date DATETIME&lt;br&gt;image_url VARCHAR(255)" style="align=left;strokeColor=none;fillColor=none;spacingLeft=4;fontSize=12;verticalAlign=top;resizable=0;rotatable=0;part=1;html=1;" parent="kPW2HSagZ7D2L_FUB9F4-1" vertex="1">
          <mxGeometry y="50" width="160" height="220" as="geometry" />
        </mxCell>
        <mxCell id="kPW2HSagZ7D2L_FUB9F4-3" value="userroles" style="swimlane;childLayout=stackLayout;horizontal=1;startSize=50;horizontalStack=0;rounded=1;fontSize=14;fontStyle=0;strokeWidth=2;resizeParent=0;resizeLast=1;shadow=0;dashed=0;align=center;arcSize=4;whiteSpace=wrap;html=1;" parent="1" vertex="1">
          <mxGeometry x="290" y="-260" width="160" height="120" as="geometry">
            <mxRectangle x="240" y="30" width="70" height="50" as="alternateBounds" />
          </mxGeometry>
        </mxCell>
        <mxCell id="kPW2HSagZ7D2L_FUB9F4-4" value="id BIGINT (PK)&lt;br&gt;user_id BIGINT (FK)&lt;br&gt;role_id BIGINT (FK)" style="align=left;strokeColor=none;fillColor=none;spacingLeft=4;fontSize=12;verticalAlign=top;resizable=0;rotatable=0;part=1;html=1;" parent="kPW2HSagZ7D2L_FUB9F4-3" vertex="1">
          <mxGeometry y="50" width="160" height="70" as="geometry" />
        </mxCell>
        <mxCell id="KlasFGh7atZoeb_XZy3V-3" value="userevents" style="swimlane;childLayout=stackLayout;horizontal=1;startSize=50;horizontalStack=0;rounded=1;fontSize=14;fontStyle=0;strokeWidth=2;resizeParent=0;resizeLast=1;shadow=0;dashed=0;align=center;arcSize=4;whiteSpace=wrap;html=1;" vertex="1" parent="1">
          <mxGeometry x="280" width="160" height="150" as="geometry">
            <mxRectangle x="-60" y="30" width="70" height="50" as="alternateBounds" />
          </mxGeometry>
        </mxCell>
        <mxCell id="KlasFGh7atZoeb_XZy3V-4" value="id BIGINT (PK)&lt;br&gt;user_id BIGINT&amp;nbsp;(FK)&lt;br&gt;event_id BIGINT&amp;nbsp;(FK)&lt;br&gt;device VARCHAR(100)&lt;br&gt;ip_address VARCHAR(100)&lt;br&gt;created_at DATETIME" style="align=left;strokeColor=none;fillColor=none;spacingLeft=4;fontSize=12;verticalAlign=top;resizable=0;rotatable=0;part=1;html=1;" vertex="1" parent="KlasFGh7atZoeb_XZy3V-3">
          <mxGeometry y="50" width="160" height="100" as="geometry" />
        </mxCell>
        <mxCell id="KlasFGh7atZoeb_XZy3V-5" value="twofactorveryfications" style="swimlane;childLayout=stackLayout;horizontal=1;startSize=50;horizontalStack=0;rounded=1;fontSize=14;fontStyle=0;strokeWidth=2;resizeParent=0;resizeLast=1;shadow=0;dashed=0;align=center;arcSize=4;whiteSpace=wrap;html=1;" vertex="1" parent="1">
          <mxGeometry x="-270" y="40" width="160" height="120" as="geometry">
            <mxRectangle x="-60" y="30" width="70" height="50" as="alternateBounds" />
          </mxGeometry>
        </mxCell>
        <mxCell id="KlasFGh7atZoeb_XZy3V-6" value="id BIGINT&amp;nbsp;(PK)&lt;br&gt;user_id BIGINT&amp;nbsp;(FK)&lt;br&gt;code VARCHAR(10)&lt;br&gt;expiration_date DATETIME" style="align=left;strokeColor=none;fillColor=none;spacingLeft=4;fontSize=12;verticalAlign=top;resizable=0;rotatable=0;part=1;html=1;" vertex="1" parent="KlasFGh7atZoeb_XZy3V-5">
          <mxGeometry y="50" width="160" height="70" as="geometry" />
        </mxCell>
        <mxCell id="KlasFGh7atZoeb_XZy3V-7" value="roles" style="swimlane;childLayout=stackLayout;horizontal=1;startSize=50;horizontalStack=0;rounded=1;fontSize=14;fontStyle=0;strokeWidth=2;resizeParent=0;resizeLast=1;shadow=0;dashed=0;align=center;arcSize=4;whiteSpace=wrap;html=1;" vertex="1" parent="1">
          <mxGeometry x="560" y="-260" width="170" height="120" as="geometry">
            <mxRectangle x="-60" y="30" width="70" height="50" as="alternateBounds" />
          </mxGeometry>
        </mxCell>
        <mxCell id="KlasFGh7atZoeb_XZy3V-8" value="id BIGINT (PK)&lt;br&gt;name VARCHAR(50)&lt;br&gt;permissions VARCHAR(255)" style="align=left;strokeColor=none;fillColor=none;spacingLeft=4;fontSize=12;verticalAlign=top;resizable=0;rotatable=0;part=1;html=1;" vertex="1" parent="KlasFGh7atZoeb_XZy3V-7">
          <mxGeometry y="50" width="170" height="70" as="geometry" />
        </mxCell>
        <mxCell id="KlasFGh7atZoeb_XZy3V-9" value="resetpasswordveryfications" style="swimlane;childLayout=stackLayout;horizontal=1;startSize=50;horizontalStack=0;rounded=1;fontSize=14;fontStyle=0;strokeWidth=2;resizeParent=0;resizeLast=1;shadow=0;dashed=0;align=center;arcSize=4;whiteSpace=wrap;html=1;" vertex="1" parent="1">
          <mxGeometry x="-280" y="-130" width="180" height="130" as="geometry">
            <mxRectangle x="-60" y="30" width="70" height="50" as="alternateBounds" />
          </mxGeometry>
        </mxCell>
        <mxCell id="KlasFGh7atZoeb_XZy3V-10" value="id BIGINT&amp;nbsp;(PK)&lt;br&gt;user_id BIGINT&amp;nbsp;(FK)&lt;br&gt;url VARCHAR(255)&lt;br&gt;expiration_date DATETIME" style="align=left;strokeColor=none;fillColor=none;spacingLeft=4;fontSize=12;verticalAlign=top;resizable=0;rotatable=0;part=1;html=1;" vertex="1" parent="KlasFGh7atZoeb_XZy3V-9">
          <mxGeometry y="50" width="180" height="80" as="geometry" />
        </mxCell>
        <mxCell id="KlasFGh7atZoeb_XZy3V-11" value="events" style="swimlane;childLayout=stackLayout;horizontal=1;startSize=50;horizontalStack=0;rounded=1;fontSize=14;fontStyle=0;strokeWidth=2;resizeParent=0;resizeLast=1;shadow=0;dashed=0;align=center;arcSize=4;whiteSpace=wrap;html=1;" vertex="1" parent="1">
          <mxGeometry x="560" y="5" width="160" height="120" as="geometry">
            <mxRectangle x="-60" y="30" width="70" height="50" as="alternateBounds" />
          </mxGeometry>
        </mxCell>
        <mxCell id="KlasFGh7atZoeb_XZy3V-12" value="id BIGINT (PK)&lt;br&gt;type VARCHAR(100)&lt;br&gt;description VARCHAR(255)" style="align=left;strokeColor=none;fillColor=none;spacingLeft=4;fontSize=12;verticalAlign=top;resizable=0;rotatable=0;part=1;html=1;" vertex="1" parent="KlasFGh7atZoeb_XZy3V-11">
          <mxGeometry y="50" width="160" height="70" as="geometry" />
        </mxCell>
        <mxCell id="KlasFGh7atZoeb_XZy3V-13" value="accountveryfications" style="swimlane;childLayout=stackLayout;horizontal=1;startSize=50;horizontalStack=0;rounded=1;fontSize=14;fontStyle=0;strokeWidth=2;resizeParent=0;resizeLast=1;shadow=0;dashed=0;align=center;arcSize=4;whiteSpace=wrap;html=1;" vertex="1" parent="1">
          <mxGeometry x="-280" y="-300" width="160" height="120" as="geometry">
            <mxRectangle x="-60" y="30" width="70" height="50" as="alternateBounds" />
          </mxGeometry>
        </mxCell>
        <mxCell id="KlasFGh7atZoeb_XZy3V-14" value="id BIGINT (PK)&lt;br&gt;user_id BIGINT&amp;nbsp;(FK)&lt;br&gt;url VARCHAR(255)" style="align=left;strokeColor=none;fillColor=none;spacingLeft=4;fontSize=12;verticalAlign=top;resizable=0;rotatable=0;part=1;html=1;" vertex="1" parent="KlasFGh7atZoeb_XZy3V-13">
          <mxGeometry y="50" width="160" height="70" as="geometry" />
        </mxCell>
        <mxCell id="KlasFGh7atZoeb_XZy3V-29" value="" style="edgeStyle=entityRelationEdgeStyle;fontSize=12;html=1;endArrow=ERoneToMany;startArrow=ERmandOne;rounded=0;entryX=1;entryY=0.25;entryDx=0;entryDy=0;exitX=0.013;exitY=0.175;exitDx=0;exitDy=0;exitPerimeter=0;" edge="1" parent="1" source="kPW2HSagZ7D2L_FUB9F4-1" target="KlasFGh7atZoeb_XZy3V-5">
          <mxGeometry width="100" height="100" relative="1" as="geometry">
            <mxPoint x="-210" y="350" as="sourcePoint" />
            <mxPoint x="-110" y="250" as="targetPoint" />
          </mxGeometry>
        </mxCell>
        <mxCell id="KlasFGh7atZoeb_XZy3V-30" value="" style="edgeStyle=entityRelationEdgeStyle;fontSize=12;html=1;endArrow=ERoneToMany;startArrow=ERmandOne;rounded=0;entryX=1.011;entryY=0.359;entryDx=0;entryDy=0;entryPerimeter=0;exitX=0.005;exitY=0.128;exitDx=0;exitDy=0;exitPerimeter=0;" edge="1" parent="1" source="kPW2HSagZ7D2L_FUB9F4-1" target="KlasFGh7atZoeb_XZy3V-9">
          <mxGeometry width="100" height="100" relative="1" as="geometry">
            <mxPoint x="-200" y="360" as="sourcePoint" />
            <mxPoint x="-100" y="260" as="targetPoint" />
          </mxGeometry>
        </mxCell>
        <mxCell id="KlasFGh7atZoeb_XZy3V-31" value="" style="edgeStyle=entityRelationEdgeStyle;fontSize=12;html=1;endArrow=ERoneToMany;startArrow=ERmandOne;rounded=0;entryX=1.013;entryY=0.21;entryDx=0;entryDy=0;entryPerimeter=0;exitX=0.005;exitY=0.075;exitDx=0;exitDy=0;exitPerimeter=0;" edge="1" parent="1" source="kPW2HSagZ7D2L_FUB9F4-1" target="KlasFGh7atZoeb_XZy3V-13">
          <mxGeometry width="100" height="100" relative="1" as="geometry">
            <mxPoint x="-90" y="-160" as="sourcePoint" />
            <mxPoint x="10" y="-260" as="targetPoint" />
          </mxGeometry>
        </mxCell>
        <mxCell id="KlasFGh7atZoeb_XZy3V-32" value="" style="edgeStyle=entityRelationEdgeStyle;fontSize=12;html=1;endArrow=ERoneToMany;startArrow=ERmandOne;rounded=0;entryX=0.006;entryY=0.333;entryDx=0;entryDy=0;entryPerimeter=0;exitX=1.003;exitY=0.144;exitDx=0;exitDy=0;exitPerimeter=0;" edge="1" parent="1" source="kPW2HSagZ7D2L_FUB9F4-1" target="kPW2HSagZ7D2L_FUB9F4-3">
          <mxGeometry width="100" height="100" relative="1" as="geometry">
            <mxPoint x="180" y="-120" as="sourcePoint" />
            <mxPoint x="280" y="-220" as="targetPoint" />
          </mxGeometry>
        </mxCell>
        <mxCell id="KlasFGh7atZoeb_XZy3V-33" value="" style="edgeStyle=entityRelationEdgeStyle;fontSize=12;html=1;endArrow=ERoneToMany;startArrow=ERmandOne;rounded=0;entryX=0.006;entryY=0.285;entryDx=0;entryDy=0;entryPerimeter=0;exitX=0.997;exitY=0.172;exitDx=0;exitDy=0;exitPerimeter=0;" edge="1" parent="1" source="kPW2HSagZ7D2L_FUB9F4-1" target="KlasFGh7atZoeb_XZy3V-3">
          <mxGeometry width="100" height="100" relative="1" as="geometry">
            <mxPoint x="190" y="30" as="sourcePoint" />
            <mxPoint x="260" y="160" as="targetPoint" />
          </mxGeometry>
        </mxCell>
        <mxCell id="KlasFGh7atZoeb_XZy3V-34" value="" style="edgeStyle=entityRelationEdgeStyle;fontSize=12;html=1;endArrow=ERoneToMany;startArrow=ERmandOne;rounded=0;entryX=1.007;entryY=0.281;entryDx=0;entryDy=0;entryPerimeter=0;exitX=0;exitY=0.345;exitDx=0;exitDy=0;exitPerimeter=0;" edge="1" parent="1" source="KlasFGh7atZoeb_XZy3V-7" target="kPW2HSagZ7D2L_FUB9F4-3">
          <mxGeometry width="100" height="100" relative="1" as="geometry">
            <mxPoint x="425" y="-64" as="sourcePoint" />
            <mxPoint x="556" y="-200" as="targetPoint" />
          </mxGeometry>
        </mxCell>
        <mxCell id="KlasFGh7atZoeb_XZy3V-35" value="" style="edgeStyle=entityRelationEdgeStyle;fontSize=12;html=1;endArrow=ERoneToMany;startArrow=ERmandOne;rounded=0;entryX=0.992;entryY=0.292;entryDx=0;entryDy=0;entryPerimeter=0;exitX=-0.016;exitY=0.301;exitDx=0;exitDy=0;exitPerimeter=0;" edge="1" parent="1" source="KlasFGh7atZoeb_XZy3V-11" target="KlasFGh7atZoeb_XZy3V-3">
          <mxGeometry width="100" height="100" relative="1" as="geometry">
            <mxPoint x="440" y="206" as="sourcePoint" />
            <mxPoint x="571" y="70" as="targetPoint" />
          </mxGeometry>
        </mxCell>
      </root>
    </mxGraphModel>
  </diagram>
</mxfile>
